<?xml version="1.0" encoding="UTF-8" standalone="no"?>
<svg width="88px" height="94px" viewBox="0 0 88 94" version="1.1" xmlns="http://www.w3.org/2000/svg" xmlns:xlink="http://www.w3.org/1999/xlink" xmlns:sketch="http://www.bohemiancoding.com/sketch/ns">
    <!-- Generator: Sketch 3.4.1 (15681) - http://www.bohemiancoding.com/sketch -->
    <title>Imported Layers</title>
    <desc>Created with Sketch.</desc>
    <defs>
        <linearGradient x1="50%" y1="0%" x2="50%" y2="100%" id="linearGradient-1">
            <stop stop-color="#FFFFFF" offset="0%"></stop>
            <stop stop-color="#D1D3D4" offset="100%"></stop>
        </linearGradient>
        <path d="M43.9645563,0.120884856 C68.134764,0.120884856 87.7360214,18.6654524 87.7360214,41.5328011 C87.7360214,64.4001498 68.134764,82.9449359 43.9645563,82.9449359 C19.7945667,82.9449359 0.193309298,64.4001498 0.193309298,41.5328011 C0.193309298,18.6654524 19.7945667,0.120884856 43.9645563,0.120884856 L43.9645563,0.120884856 Z M43.9645563,4.80457186 C22.5279514,4.80457186 5.14386006,21.2519074 5.14386006,41.5328011 C5.14386006,61.8139134 22.5279514,78.2614675 43.9645563,78.2614675 C65.4011611,78.2614675 82.7856888,61.8139134 82.7856888,41.5328011 C82.7856888,21.2519074 65.4011611,4.80457186 43.9645563,4.80457186 L43.9645563,4.80457186 Z" id="path-2"></path>
    </defs>
    <g id="Page-1" stroke="none" stroke-width="1" fill="none" fill-rule="evenodd" sketch:type="MSPage">
        <g id="Desktop-HD-Copy-8" sketch:type="MSArtboardGroup" transform="translate(-676.000000, -303.000000)">
            <g id="Imported-Layers" sketch:type="MSLayerGroup" transform="translate(676.000000, 303.000000)">
                <path d="M26.5488285,26.4722532 L63.1842132,26.4722532 L63.1842132,63.177311 L26.5488285,63.177311 L26.5488285,26.4722532 Z" id="Fill-1" sketch:type="MSShapeGroup"></path>
                <path d="M4.45222296,63.2188447 C-2.58240277,39.5042089 9.62401032,10.0268851 43.9573562,13.9080977 C76.5428458,17.5919162 90.1364603,43.9356335 83.3909258,64.916479 C77.9036472,81.9839778 62.1679212,93.3742605 46.0309585,93.8416236 C28.3067213,94.3548924 10.0979017,82.2515422 4.45222296,63.2188447" id="Fill-3" fill="#A94411" sketch:type="MSShapeGroup"></path>
                <path d="M14.5970338,13.5408526 C13.55936,10.6444252 8.07491775,5.11323265 8.03564498,11.4676664 C8.00488131,16.410611 11.9823401,24.875174 13.7323784,26.8545816 L7.26917143,31.4425225 C7.23229867,31.4007703 -3.93927695,11.1030445 2.04742038,3.56992871 C9.07528246,-5.2734652 21.1265681,6.93874699 21.1612591,6.97350412 L14.5970338,13.5408526" id="Fill-4" fill="#FFFFFF" sketch:type="MSShapeGroup"></path>
                <path d="M86.4797291,51.421532 C75.8066995,102.815083 12.69885,102.922634 1.44960156,51.421532 L1.45505611,51.4300574 C6.14640659,69.5195032 23.4002433,82.9449359 43.9645563,82.9449359 C64.5290874,82.9449359 81.7829241,69.5195032 86.4740564,51.4300574 L86.4797291,51.421532" id="Fill-5" fill="#FFFFFF" sketch:type="MSShapeGroup"></path>
                <g id="Group-8">
                    <mask id="mask-3" sketch:name="Clip 7" fill="white">
                        <use xlink:href="#path-2"></use>
                    </mask>
                    <use id="Clip-7" fill="url(#linearGradient-1)" sketch:type="MSShapeGroup" xlink:href="#path-2"></use>
                    <path d="M43.9645563,0.120884856 C68.134764,0.120884856 87.7360214,18.6654524 87.7360214,41.5328011 C87.7360214,64.4001498 68.134764,82.9449359 43.9645563,82.9449359 C19.7945667,82.9449359 0.193309298,64.4001498 0.193309298,41.5328011 C0.193309298,18.6654524 19.7945667,0.120884856 43.9645563,0.120884856 L43.9645563,0.120884856 Z M43.9645563,4.80457186 C22.5279514,4.80457186 5.14386006,21.2519074 5.14386006,41.5328011 C5.14386006,61.8139134 22.5279514,78.2614675 43.9645563,78.2614675 C65.4011611,78.2614675 82.7856888,61.8139134 82.7856888,41.5328011 C82.7856888,21.2519074 65.4011611,4.80457186 43.9645563,4.80457186 L43.9645563,4.80457186 Z" id="Fill-6" sketch:type="MSShapeGroup" mask="url(#mask-3)"></path>
                </g>
                <path d="M43.9645563,78.2614675 C65.3463974,78.2614675 82.7856888,61.7621056 82.7856888,41.5330197 C82.7856888,21.3037152 65.3463974,4.80457186 43.9645563,4.80457186 C22.5829333,4.80457186 5.14386006,21.3037152 5.14386006,41.5330197 C5.14386006,61.7621056 22.5829333,78.2614675 43.9645563,78.2614675" id="Fill-9" fill="#CCCCCC" sketch:type="MSShapeGroup"></path>
                <path d="M43.9645563,13.4354882 C63.2431224,13.4354882 78.8776119,27.9501962 78.8776119,45.8483686 C78.8776119,63.7465409 63.2431224,78.2614675 43.9645563,78.2614675 C24.6862083,78.2614675 9.0517188,63.7465409 9.0517188,45.8483686 C9.0517188,27.9501962 24.6862083,13.4354882 43.9645563,13.4354882" id="Fill-10" fill="#38230D" sketch:type="MSShapeGroup"></path>
                <path d="M61.9704665,18.0758928 C72.1010955,23.7502672 78.8776119,34.065702 78.8776119,45.8483686 C78.8776119,63.7465409 63.2431224,78.2614675 43.9645563,78.2614675 C37.0715307,78.2614675 30.6449783,76.4049122 25.2318816,73.2026659 C46.8901594,81.4545328 66.0711982,73.9614205 74.2597888,54.2921648 C75.7392813,50.738631 75.8845905,41.3703826 73.9183338,36.809985 C73.0357874,34.762812 70.0663297,32.129577 68.7557101,30.2456969 C67.5993452,28.5832569 68.0965821,27.6758554 67.2995631,25.8199559 C66.2878529,23.4643407 64.1001415,20.6236559 61.9704665,18.0758928" id="Fill-11" fill="#845424" sketch:type="MSShapeGroup"></path>
                <path d="M37.8218588,16.0341847 C39.0484783,16.1917941 34.577928,17.6341056 29.8263593,21.2005368 C26.2054099,23.9185879 23.3465705,26.8899945 21.2668592,30.5945798 L16.026999,29.4991837 C17.8828555,26.6482248 21.8256234,22.5081917 27.1593019,19.4935027 C30.6918875,17.4968259 35.8137111,15.7755829 37.8218588,16.0341847 L37.8218588,16.0341847 Z M19.3370389,33.819779 C18.4080197,35.9727535 17.5060551,37.7834032 17.1977639,40.1755243 L12.4564497,38.5985562 C12.8236501,36.3970528 13.5135418,34.2582871 14.4755064,32.2554896 L19.3370389,33.819779 L19.3370389,33.819779 Z" id="Fill-12" fill="#845424" sketch:type="MSShapeGroup"></path>
                <path d="M43.3464465,14.920645 L42.4423001,14.920645 C42.4423001,15.79788 44.655757,15.9242298 42.8297914,16.996673 C42.3388818,17.2850041 41.4039717,18.2617013 42.4423001,18.6514621 C45.0724847,19.6382148 41.8163358,19.9794467 42.506882,21.1185624 C43.1865191,22.2393158 46.0237585,20.2395787 46.3174315,19.9750747 C47.7233967,18.7100464 43.9687017,17.7256983 44.5091387,17.3575788 C45.7861582,16.4879948 45.440776,15.2457007 43.3464465,14.920645 L43.3464465,14.920645 Z M43.3464465,69.9446769 L42.4423001,69.9446769 C42.4423001,70.8216933 44.655757,70.9482617 42.8297914,72.0207049 C42.3388818,72.309036 41.4039717,73.2857332 42.4423001,73.6752754 C45.0724847,74.6622467 41.8163358,75.00326 42.506882,76.1423757 C43.1865191,77.2633477 46.0237585,75.2636106 46.3174315,74.9993252 C47.7233967,73.7340783 43.9687017,72.7497302 44.5091387,72.3816107 C45.7861582,71.5120267 45.440776,70.269514 43.3464465,69.9446769 L43.3464465,69.9446769 Z M18.5038017,44.741824 L18.5038017,43.8359527 C17.5704188,43.8359527 17.4360187,46.0534138 16.2947084,44.2241833 C15.9875081,43.7321185 14.9483069,42.7956434 14.533761,43.8359527 C13.4836508,46.4709365 13.1203777,43.2085756 11.9083764,43.9006578 C10.7155751,44.5813729 12.8437229,47.4240251 13.1249595,47.7182584 C14.471361,49.1269058 15.518853,45.3650478 15.9104898,45.9065157 C16.8360181,47.1859715 18.1582013,46.8399304 18.5038017,44.741824 L18.5038017,44.741824 Z M77.0595009,44.741824 L77.0595009,43.8359527 C76.1256817,43.8359527 75.9912815,46.0534138 74.8501894,44.2241833 C74.5429891,43.7321185 73.5037879,42.7956434 73.0890239,43.8359527 C72.0391318,46.4709365 71.6760769,43.2085756 70.4636392,43.9006578 C69.270838,44.5813729 71.3989857,47.4240251 71.6804405,47.7182584 C73.0266238,49.1269058 74.074334,45.3650478 74.4659708,45.9065157 C75.3912809,47.1859715 76.7136823,46.8399304 77.0595009,44.741824 L77.0595009,44.741824 Z" id="Fill-13" fill="#A66D35" sketch:type="MSShapeGroup"></path>
                <path d="M41.1720442,43.3185305 L43.6512468,21.7481255 L46.1306677,43.3185305 C47.2660871,44.106796 48.0100879,45.4212275 48.0100879,46.9101005 C48.0100879,49.3212396 46.0582312,51.27682 43.6512468,51.27682 C41.2444806,51.27682 39.292624,49.3212396 39.292624,46.9101005 C39.292624,45.4214461 40.0366248,44.106796 41.1720442,43.3185305" id="Fill-14" fill="#FFFFFF" sketch:type="MSShapeGroup"></path>
                <path d="M46.9634686,44.0189195 L60.7017378,43.7611921 L47.9125605,48.8954102 C47.3575054,50.1628431 46.2120496,51.1458796 44.7537207,51.4307132 C42.3914637,51.8921742 40.1020794,50.3469028 39.6414971,47.9801391 C39.1809148,45.6133754 40.7232437,43.3196235 43.0855008,42.8581625 C44.5438296,42.573329 45.9737948,43.0533708 46.9634686,44.0189195" id="Fill-15" fill="#FFFFFF" sketch:type="MSShapeGroup"></path>
                <path d="M72.2141138,34.3719582 C72.6943325,34.3719582 73.1291694,34.5671665 73.4437879,34.8826039 C73.7586246,35.1978226 73.9534612,35.6337076 73.9534612,36.1148424 C73.9534612,36.5959773 73.7586246,37.0316437 73.4437879,37.347081 C73.1291694,37.6622997 72.6943325,37.857508 72.2141138,37.857508 C71.7338951,37.857508 71.2988401,37.6622997 70.9842216,37.347081 C70.6693849,37.0316437 70.4745483,36.5959773 70.4745483,36.1148424 C70.4745483,35.6337076 70.6693849,35.1978226 70.9842216,34.8826039 C71.2988401,34.5671665 71.7338951,34.3719582 72.2141138,34.3719582 L72.2141138,34.3719582 Z M72.9960783,35.3313862 C72.7960054,35.1309315 72.5193505,35.0069863 72.2141138,35.0069863 C71.908659,35.0069863 71.6324405,35.1309315 71.4323675,35.3313862 C71.2322946,35.5318408 71.1083672,35.8088048 71.1083672,36.1148424 C71.1083672,36.4206614 71.2322946,36.6976255 71.4323675,36.8980801 C71.6324405,37.0985347 71.908659,37.22248 72.2141138,37.22248 C72.5193505,37.22248 72.7960054,37.0985347 72.9960783,36.8980801 C73.1959331,36.6976255 73.3196423,36.4206614 73.3196423,36.1148424 C73.3196423,35.8088048 73.1959331,35.5318408 72.9960783,35.3313862 L72.9960783,35.3313862 Z" id="Fill-16" fill="#845424" sketch:type="MSShapeGroup"></path>
                <path d="M70.3072027,31.5240597 C70.7130213,31.5240597 71.0800035,31.6888828 71.3459674,31.9553541 C71.6117132,32.2216068 71.7762225,32.5897264 71.7762225,32.995882 C71.7762225,33.4020376 71.6117132,33.7701571 71.3459674,34.0364099 C71.0800035,34.3026626 70.7130213,34.4674857 70.3072027,34.4674857 C69.9018204,34.4674857 69.5344019,34.3026626 69.2686561,34.0364099 C69.0029104,33.7701571 68.8384011,33.4020376 68.8384011,32.995882 C68.8384011,32.5897264 69.0029104,32.2216068 69.2686561,31.9553541 C69.5344019,31.6888828 69.9018204,31.5240597 70.3072027,31.5240597 L70.3072027,31.5240597 Z M70.9676398,32.3344036 C70.7985487,32.1652085 70.5650939,32.0602813 70.3072027,32.0602813 C70.0495297,32.0602813 69.8158567,32.1652085 69.647202,32.3344036 C69.4781109,32.5035986 69.3736017,32.7374988 69.3736017,32.995882 C69.3736017,33.2542652 69.4781109,33.4879468 69.647202,33.6573604 C69.8158567,33.8265555 70.0495297,33.9312641 70.3072027,33.9312641 C70.5650939,33.9312641 70.7985487,33.8265555 70.9676398,33.6573604 C71.1365127,33.4879468 71.2412401,33.2542652 71.2412401,32.995882 C71.2412401,32.7374988 71.1365127,32.5035986 70.9676398,32.3344036 L70.9676398,32.3344036 Z" id="Fill-17" fill="#845424" sketch:type="MSShapeGroup"></path>
                <path d="M69.1154923,28.8440446 C69.5210928,28.8440446 69.888075,29.0090863 70.1540389,29.2751205 C70.4197846,29.5415918 70.5845121,29.9097113 70.5845121,30.3158669 C70.5845121,30.7222412 70.4197846,31.0901421 70.1540389,31.3563948 C69.888075,31.6226475 69.5210928,31.7874706 69.1154923,31.7874706 C68.7101101,31.7874706 68.3424733,31.6226475 68.0769458,31.3563948 C67.8112,31.0901421 67.6464726,30.7222412 67.6464726,30.3158669 C67.6464726,29.9097113 67.8112,29.5415918 68.0769458,29.2751205 C68.3424733,29.0090863 68.7101101,28.8440446 69.1154923,28.8440446 L69.1154923,28.8440446 Z M69.7757112,29.6543885 C69.6066201,29.4851934 69.3731653,29.3802662 69.1154923,29.3802662 C68.8576011,29.3802662 68.6241463,29.4851934 68.4552734,29.6543885 C68.2864005,29.8235836 68.1816731,30.0574838 68.1816731,30.3158669 C68.1816731,30.5740315 68.2864005,30.8081503 68.4552734,30.9771268 C68.6241463,31.1465404 68.8576011,31.251249 69.1154923,31.251249 C69.3731653,31.251249 69.6066201,31.1465404 69.7757112,30.9771268 C69.9445841,30.8081503 70.0493115,30.5740315 70.0493115,30.3158669 C70.0493115,30.0574838 69.9445841,29.8235836 69.7757112,29.6543885 L69.7757112,29.6543885 Z" id="Fill-18" fill="#845424" sketch:type="MSShapeGroup"></path>
                <path d="M73.5681517,37.7331256 C73.8620429,37.7331256 74.128225,37.8524803 74.3208797,38.0455025 C74.5135345,38.2385248 74.6326619,38.5054334 74.6326619,38.7996667 C74.6326619,39.0941186 74.5135345,39.3608085 74.3208797,39.5538308 C74.128225,39.7468531 73.8620429,39.8664263 73.5681517,39.8664263 C73.2742604,39.8664263 73.0080783,39.7468531 72.8154236,39.5538308 C72.6227688,39.3608085 72.5036414,39.0941186 72.5036414,38.7996667 C72.5036414,38.5054334 72.6227688,38.2385248 72.8154236,38.0455025 C73.0080783,37.8524803 73.2742604,37.7331256 73.5681517,37.7331256 L73.5681517,37.7331256 Z M74.0466249,38.3202806 C73.9242248,38.197647 73.7549155,38.1217933 73.5681517,38.1217933 C73.3813878,38.1217933 73.2120785,38.197647 73.0896784,38.3202806 C72.9672783,38.4429142 72.8915691,38.6125465 72.8915691,38.7996667 C72.8915691,38.9870054 72.9672783,39.1564191 73.0896784,39.2790527 C73.2120785,39.4016863 73.3813878,39.4777586 73.5681517,39.4777586 C73.7549155,39.4777586 73.9242248,39.4016863 74.0466249,39.2790527 C74.169025,39.1564191 74.2449524,38.9870054 74.2449524,38.7996667 C74.2449524,38.6125465 74.169025,38.4429142 74.0466249,38.3202806 L74.0466249,38.3202806 Z" id="Fill-19" fill="#845424" sketch:type="MSShapeGroup"></path>
                <path d="M74.0974613,41.3312535 C74.3913525,41.3312535 74.6577528,41.4508267 74.8504076,41.6436304 C75.0428441,41.8368713 75.1619715,42.1035612 75.1619715,42.3980131 C75.1619715,42.6922464 75.0428441,42.959155 74.8504076,43.1521772 C74.6577528,43.3451995 74.3913525,43.4645542 74.0974613,43.4645542 C73.8037883,43.4645542 73.537388,43.3451995 73.3447332,43.1521772 C73.1520785,42.959155 73.0327329,42.6922464 73.0327329,42.3980131 C73.0327329,42.1035612 73.1520785,41.8368713 73.3447332,41.6436304 C73.537388,41.4508267 73.8037883,41.3312535 74.0974613,41.3312535 L74.0974613,41.3312535 Z M74.5761527,41.9186271 C74.4535344,41.7957748 74.2844433,41.7199212 74.0974613,41.7199212 C73.9106975,41.7199212 73.7413882,41.7957748 73.6189881,41.9186271 C73.4965879,42.0412607 73.4208788,42.2106744 73.4208788,42.3980131 C73.4208788,42.5851333 73.4965879,42.754547 73.6189881,42.8771806 C73.7413882,42.9998142 73.9106975,43.0758864 74.0974613,43.0758864 C74.2844433,43.0758864 74.4535344,42.9998142 74.5761527,42.8771806 C74.6983347,42.754547 74.774262,42.5851333 74.774262,42.3980131 C74.774262,42.2106744 74.6983347,42.0412607 74.5761527,41.9186271 L74.5761527,41.9186271 Z" id="Fill-20" fill="#845424" sketch:type="MSShapeGroup"></path>
                <path d="M73.8116428,51.6012198 C74.1845159,51.6012198 74.5222618,51.7527084 74.7666257,51.9973199 C75.0107714,52.2423686 75.1619715,52.5807588 75.1619715,52.9541247 C75.1619715,53.3277091 75.0107714,53.6660993 74.7666257,53.9109294 C74.5222618,54.1557595 74.1845159,54.3074667 73.8116428,54.3074667 C73.4387697,54.3074667 73.1010239,54.1557595 72.85666,53.9109294 C72.6122961,53.6660993 72.4608777,53.3277091 72.4608777,52.9541247 C72.4608777,52.5807588 72.6122961,52.2423686 72.85666,51.9973199 C73.1010239,51.7527084 73.4387697,51.6012198 73.8116428,51.6012198 L73.8116428,51.6012198 Z M74.4186253,52.3459842 C74.2632797,52.1905608 74.0485885,52.094159 73.8116428,52.094159 C73.5744789,52.094159 73.3595696,52.1905608 73.2046604,52.3459842 C73.0493147,52.5016262 72.9528783,52.7167269 72.9528783,52.9541247 C72.9528783,53.191741 73.0493147,53.4068417 73.2046604,53.5622651 C73.3595696,53.7179071 73.5744789,53.8145275 73.8116428,53.8145275 C74.0485885,53.8145275 74.2632797,53.7179071 74.4186253,53.5622651 C74.5739709,53.4068417 74.669971,53.191741 74.669971,52.9541247 C74.669971,52.7167269 74.5739709,52.5016262 74.4186253,52.3459842 L74.4186253,52.3459842 Z" id="Fill-21" fill="#845424" sketch:type="MSShapeGroup"></path>
                <path d="M71.5270586,53.9996803 C72.2680048,53.9996803 72.9391328,54.3009087 73.4245879,54.7875085 C73.9102611,55.2738897 74.210916,55.9467353 74.210916,56.6888765 C74.210916,57.4312363 73.9102611,58.1036446 73.4245879,58.5900258 C72.9391328,59.0766256 72.2680048,59.3778541 71.5270586,59.3778541 C70.7863305,59.3778541 70.1149843,59.0766256 69.6295292,58.5900258 C69.1436378,58.1036446 68.8432011,57.4312363 68.8432011,56.6888765 C68.8432011,55.9467353 69.1436378,55.2738897 69.6295292,54.7875085 C70.1149843,54.3009087 70.7863305,53.9996803 71.5270586,53.9996803 L71.5270586,53.9996803 Z M72.7331689,55.4802465 C72.4246595,55.1711485 71.9981136,54.9796564 71.5270586,54.9796564 C71.0560035,54.9796564 70.6294576,55.1711485 70.3209482,55.4802465 C70.0122206,55.7895631 69.8210931,56.2169228 69.8210931,56.6888765 C69.8210931,57.1606116 70.0122206,57.5881899 70.3209482,57.8972878 C70.6294576,58.2066044 71.0560035,58.3978779 71.5270586,58.3978779 C71.9981136,58.3978779 72.4246595,58.2066044 72.7331689,57.8972878 C73.0418965,57.5881899 73.233024,57.1606116 73.233024,56.6888765 C73.233024,56.2169228 73.0418965,55.7895631 72.7331689,55.4802465 L72.7331689,55.4802465 Z" id="Fill-22" fill="#845424" sketch:type="MSShapeGroup"></path>
                <path d="M67.8092364,58.5192 C68.8829103,58.5192 69.855784,58.9557408 70.5596393,59.6609389 C71.2632765,60.3659184 71.6987678,61.3406481 71.6987678,62.4163703 C71.6987678,63.4920925 71.2632765,64.4666037 70.5596393,65.1718018 C69.855784,65.8767813 68.8829103,66.3133221 67.8092364,66.3133221 C66.7355625,66.3133221 65.7629069,65.8767813 65.0590516,65.1718018 C64.3551963,64.4666037 63.9197049,63.4920925 63.9197049,62.4163703 C63.9197049,61.3406481 64.3551963,60.3659184 65.0590516,59.6609389 C65.7629069,58.9557408 66.7355625,58.5192 67.8092364,58.5192 L67.8092364,58.5192 Z M69.5575292,60.6649608 C69.110256,60.2168343 68.491928,59.9392145 67.8092364,59.9392145 C67.1265447,59.9392145 66.5082168,60.2168343 66.0609436,60.6649608 C65.6136704,61.1128687 65.3367974,61.7323763 65.3367974,62.4163703 C65.3367974,63.1001458 65.6136704,63.7196533 66.0609436,64.1679984 C66.5082168,64.6161249 67.1265447,64.8935262 67.8092364,64.8935262 C68.491928,64.8935262 69.110256,64.6161249 69.5575292,64.1679984 C70.0045842,63.7196533 70.2816754,63.1001458 70.2816754,62.4163703 C70.2816754,61.7323763 70.0045842,61.1128687 69.5575292,60.6649608 L69.5575292,60.6649608 Z" id="Fill-23" fill="#845424" sketch:type="MSShapeGroup"></path>
                <path d="M64.3628327,63.989185 C65.1526517,63.989185 65.8680707,64.3100873 66.3858167,64.8288211 C66.9035627,65.3477734 67.2238539,66.0645572 67.2238539,66.855883 C67.2238539,67.6472089 66.9035627,68.3637741 66.3858167,68.8825078 C65.8680707,69.4012416 65.1526517,69.7223624 64.3628327,69.7223624 C63.5730137,69.7223624 62.8575947,69.4012416 62.3398487,68.8825078 C61.8221027,68.3637741 61.5018114,67.6472089 61.5018114,66.855883 C61.5018114,66.0645572 61.8221027,65.3477734 62.3398487,64.8288211 C62.8575947,64.3100873 63.5730137,63.989185 64.3628327,63.989185 L64.3628327,63.989185 Z M65.6487977,65.5672461 C65.3197792,65.2375999 64.8648696,65.0336477 64.3628327,65.0336477 C63.8605776,65.0336477 63.4058862,65.2375999 63.0768677,65.5672461 C62.7478491,65.8968923 62.5440671,66.3526698 62.5440671,66.855883 C62.5440671,67.3588777 62.7478491,67.8146552 63.0768677,68.1440828 C63.4058862,68.473729 63.8605776,68.6778998 64.3628327,68.6778998 C64.8648696,68.6778998 65.3197792,68.473729 65.6487977,68.1440828 C65.9778162,67.8146552 66.1813801,67.3588777 66.1813801,66.855883 C66.1813801,66.3526698 65.9778162,65.8968923 65.6487977,65.5672461 L65.6487977,65.5672461 Z" id="Fill-24" fill="#845424" sketch:type="MSShapeGroup"></path>
                <path d="M60.8413744,67.9989335 C61.4983205,67.9989335 62.0935212,68.2660606 62.5239943,68.6975737 C62.9546857,69.1288681 63.2215224,69.7254228 63.2215224,70.3836223 C63.2215224,71.0418217 62.9546857,71.6381579 62.5239943,72.0696709 C62.0935212,72.5011839 61.4983205,72.7683111 60.8413744,72.7683111 C60.1844282,72.7683111 59.5890094,72.5011839 59.1585362,72.0696709 C58.7278448,71.6381579 58.4612264,71.0418217 58.4612264,70.3836223 C58.4612264,69.7254228 58.7278448,69.1288681 59.1585362,68.6975737 C59.5890094,68.2660606 60.1844282,67.9989335 60.8413744,67.9989335 L60.8413744,67.9989335 Z M61.911121,69.3118349 C61.6373025,69.037494 61.259193,68.8678617 60.8413744,68.8678617 C60.4235557,68.8678617 60.0452281,69.037494 59.7716278,69.3118349 C59.4978093,69.5859571 59.3285,69.9652252 59.3285,70.3836223 C59.3285,70.802238 59.4978093,71.1810689 59.7716278,71.4554097 C60.0452281,71.7297506 60.4235557,71.8993828 60.8413744,71.8993828 C61.259193,71.8993828 61.6373025,71.7297506 61.911121,71.4554097 C62.1847213,71.1810689 62.3542487,70.802238 62.3542487,70.3836223 C62.3542487,69.9652252 62.1847213,69.5859571 61.911121,69.3118349 L61.911121,69.3118349 Z" id="Fill-25" fill="#845424" sketch:type="MSShapeGroup"></path>
                <path d="M66.2413802,50.6752375 C66.7682898,50.6752375 67.245454,50.8894638 67.5908361,51.2355049 C67.9360002,51.581546 68.1498186,52.0596205 68.1498186,52.5873167 C68.1498186,53.1152316 67.9360002,53.5933061 67.5908361,53.9393472 C67.245454,54.2853883 66.7682898,54.4996146 66.2413802,54.4996146 C65.7144705,54.4996146 65.2373064,54.2853883 64.8919242,53.9393472 C64.5467602,53.5933061 64.3327236,53.1152316 64.3327236,52.5873167 C64.3327236,52.0596205 64.5467602,51.581546 64.8919242,51.2355049 C65.2373064,50.8894638 65.7144705,50.6752375 66.2413802,50.6752375 L66.2413802,50.6752375 Z M67.0990538,51.7280068 C66.8795627,51.508097 66.5762896,51.3719102 66.2413802,51.3719102 C65.9062525,51.3719102 65.6031977,51.508097 65.3834883,51.7280068 C65.1642154,51.9479167 65.0282879,52.2517683 65.0282879,52.5873167 C65.0282879,52.9230837 65.1642154,53.2269353 65.3834883,53.4468452 C65.6031977,53.6667551 65.9062525,53.8027232 66.2413802,53.8027232 C66.5762896,53.8027232 66.8795627,53.6667551 67.0990538,53.4468452 C67.3185449,53.2269353 67.4544724,52.9230837 67.4544724,52.5873167 C67.4544724,52.2517683 67.3185449,51.9479167 67.0990538,51.7280068 L67.0990538,51.7280068 Z" id="Fill-26" fill="#845424" sketch:type="MSShapeGroup"></path>
                <path d="M67.2552722,55.6739246 C67.5827634,55.6739246 67.8792728,55.807051 68.093964,56.0221517 C68.3086551,56.2372524 68.441528,56.5345461 68.441528,56.8626621 C68.441528,57.1907782 68.3086551,57.4878532 68.093964,57.7031726 C67.8792728,57.9180547 67.5827634,58.051181 67.2552722,58.051181 C66.9275627,58.051181 66.6310533,57.9180547 66.416144,57.7031726 C66.201671,57.4878532 66.0687982,57.1907782 66.0687982,56.8626621 C66.0687982,56.5345461 66.201671,56.2372524 66.416144,56.0221517 C66.6310533,55.807051 66.9275627,55.6739246 67.2552722,55.6739246 L67.2552722,55.6739246 Z M67.7882909,56.3284079 C67.6519271,56.191784 67.4634178,56.1071864 67.2552722,56.1071864 C67.0469083,56.1071864 66.858399,56.191784 66.7220352,56.3284079 C66.5856714,56.4650318 66.5010168,56.6541194 66.5010168,56.8626621 C66.5010168,57.0712049 66.5856714,57.2600738 66.7220352,57.3966978 C66.858399,57.5335403 67.0469083,57.6181378 67.2552722,57.6181378 C67.4634178,57.6181378 67.6519271,57.5335403 67.7882909,57.3966978 C67.9246547,57.2600738 68.0093093,57.0712049 68.0093093,56.8626621 C68.0093093,56.6541194 67.9246547,56.4650318 67.7882909,56.3284079 L67.7882909,56.3284079 Z" id="Fill-27" fill="#845424" sketch:type="MSShapeGroup"></path>
            </g>
        </g>
    </g>
</svg>